<svg width="50" height="50" xmlns="http://www.w3.org/2000/svg" version="1.1">

 <g>
  <title>Layer 1</title>
  <path id="svg_1" d="m24.99783,0.03502c-13.73995,0 -24.91873,11.17878 -24.91873,24.91873c0,13.73995 11.17878,24.9177 24.91873,24.9177s24.91873,-11.17878 24.91873,-24.9177c0,-13.73995 -11.17878,-24.91873 -24.91873,-24.91873zm8.0042,6.32847l0.32377,-1.56505c5.54025,2.29947 9.92094,6.82395 12.05181,12.44799l-8.92792,0l0.59168,-3.15803c0.05482,-0.2948 -0.02172,-0.59892 -0.20791,-0.83373l-3.10527,-3.90797c-0.16757,-0.21205 -0.41169,-0.34963 -0.68064,-0.38273l-3.28319,-0.40962c-0.34342,-0.04034 -0.68891,0.08999 -0.91338,0.35273c-0.22653,0.26377 -0.30515,0.62374 -0.20998,0.95682l0.91958,3.23354l-2.92012,0.75098l-2.05432,-2.03881l2.31913,-2.07811c0.36307,-0.3248 0.44996,-0.85752 0.20998,-1.27955l-0.92682,-1.63539l5.73162,0.36825c0.52858,0.02689 0.97751,-0.31653 1.08198,-0.82131zm-19.71155,0.21309l0,2.75565l-3.32974,3.05459l-2.2612,-0.67133c1.55057,-2.02122 3.43938,-3.76315 5.59094,-5.13891zm0,36.75332c-3.5842,-2.2912 -6.4526,-5.59197 -8.20487,-9.50822l2.41429,1.50505l3.15389,3.90073c0.1955,0.24205 0.49238,0.38376 0.80373,0.38376l1.83192,0l0.00103,3.71867l0,0zm11.70736,3.43938c-3.46318,0 -6.72775,-0.83269 -9.63855,-2.27465l0,-5.91574c0,-0.57306 -0.46238,-1.0344 -1.0344,-1.0344l-2.37188,0l-2.95218,-3.65247c-0.07241,-0.08896 -0.1593,-0.16654 -0.25757,-0.2286l-4.76756,-2.97184c-0.50065,-1.83192 -0.79235,-3.74971 -0.79235,-5.73679c0,-4.2007 1.21439,-8.11384 3.28009,-11.44565l3.47042,1.03026c0.09723,0.02793 0.1955,0.04241 0.29377,0.04241c0.25653,0 0.50686,-0.09516 0.69926,-0.27205l4.09726,-3.75901c0.21412,-0.1955 0.33515,-0.47272 0.33515,-0.76235l0,-4.37448c2.91081,-1.44299 6.17641,-2.27465 9.63855,-2.27465c2.21465,0 4.34759,0.33618 6.36364,0.95268l-0.20171,0.97234l-6.7443,-0.43445c-0.39824,-0.01862 -0.74167,0.16137 -0.94337,0.48307c-0.20171,0.32273 -0.21102,0.72822 -0.02379,1.05819l1.45851,2.57566l-2.5167,2.255c-0.21205,0.19136 -0.33618,0.45927 -0.34342,0.74477c-0.00724,0.28549 0.10344,0.55961 0.30618,0.76029l3.24905,3.22423c0.2586,0.25653 0.63409,0.35583 0.98578,0.26791l4.51723,-1.15956c0.27101,-0.0693 0.50065,-0.24515 0.64029,-0.4872c0.13964,-0.24205 0.17378,-0.53065 0.0993,-0.79752l-0.78408,-2.75254l1.31472,0.16344l2.54877,3.20871l-0.73236,3.91831c-0.05689,0.30205 0.02276,0.61443 0.22136,0.85028c0.1955,0.23688 0.48927,0.37342 0.79752,0.37342l10.83949,0c0.48307,1.80193 0.76339,3.68557 0.76339,5.63749c0,12.02905 -9.78647,21.81553 -21.81553,21.81553z"/>
  <path id="svg_2" d="m37.52868,25.46319c-0.12022,-0.02215 -0.24571,-0.02215 -0.39861,0.00422l-2.85146,0l-2.73441,-5.98027c-0.19931,-0.44712 -0.64221,-0.72236 -1.18424,-0.62428l-6.80175,0c0.0464,-1.9298 -0.03164,-2.01205 -0.3248,-2.3126c-0.19825,-0.20458 -0.4756,-0.32374 -0.76243,-0.32374l-5.34649,0c-0.34905,0 -0.68123,0.14974 -0.91639,0.4176l-4.80974,5.53736c-0.13814,0.15291 -0.26363,0.42076 -0.29632,0.62534l-0.42603,2.75128c-0.02636,0.19825 0.01898,0.49458 0.10334,0.67701l1.41097,3.01597c0.05167,0.09491 0.15291,0.22673 0.22989,0.30054l1.63664,1.55544c0.22673,0.21829 0.52516,0.33956 0.84046,0.33956l5.23788,0l0.99443,0.70865l1.52591,4.18756l-0.58738,2.54354c-0.04851,0.22145 -0.01476,0.55152 0.07804,0.76032l1.83911,4.06523c0.14447,0.31847 0.41654,0.55785 0.76981,0.66858c0.09385,0.02531 0.23727,0.0464 0.33534,0.0464c0.2088,0 0.49774,-0.08647 0.67068,-0.20142l9.12384,-6.14583c0.32058,-0.26363 0.48192,-0.66541 0.43552,-1.04399l-0.35749,-3.97665l3.23953,-5.86322c0.15291,-0.1856 0.24254,-0.41971 0.24254,-0.67596c0,-0.27945 -0.11494,-0.55258 -0.3132,-0.75188c-0.16029,-0.16556 -0.37541,-0.27418 -0.60319,-0.30476zm-4.56508,6.85659c-0.10124,0.18349 -0.14658,0.39334 -0.1276,0.60214l0.33851,3.77102l-7.70443,5.18199l-1.27704,-2.82299l0.58738,-2.54354c0.0464,-0.19825 0.03269,-0.406 -0.03691,-0.59687l-1.74631,-4.78864c-0.07171,-0.19931 -0.20458,-0.37331 -0.37858,-0.49774l-1.53646,-1.09355c-0.17822,-0.1276 -0.39123,-0.1972 -0.61163,-0.1972l-5.21468,0l-1.25806,-1.19479l-1.19162,-2.55514l0.34061,-2.20292l4.38476,-5.04911l3.92393,0c-0.00633,0.46189 -0.01898,1.0345 -0.03585,1.547c-0.00949,0.28578 0.09807,0.56312 0.29527,0.76876c0.19931,0.20458 0.47243,0.32163 0.75821,0.32163l7.43131,0l2.73968,5.98976c0.17189,0.37331 0.54836,0.61585 0.95963,0.61585l1.98358,0l-2.62368,4.74435z"/>
 </g>
</svg>