<svg xmlns="http://www.w3.org/2000/svg" xmlns:xlink="http://www.w3.org/1999/xlink" version="1.1" x="0px" y="0px" viewBox="0 0 100 125" enable-background="new 0 0 100 100" xml:space="preserve"><path d="M49.785,26.008c-13.283,0-24.09,10.807-24.09,24.09c0,13.283,10.807,24.089,24.09,24.089s24.09-10.807,24.09-24.089  C73.875,36.815,63.068,26.008,49.785,26.008z M57.523,32.126l0.313-1.513c5.356,2.223,9.591,6.597,11.651,12.034h-8.631l0.572-3.053  c0.053-0.285-0.021-0.579-0.201-0.806l-3.002-3.778c-0.162-0.205-0.398-0.338-0.658-0.37l-3.174-0.396  c-0.332-0.039-0.666,0.087-0.883,0.341c-0.219,0.255-0.295,0.603-0.203,0.925l0.889,3.126l-2.823,0.726l-1.986-1.971l2.242-2.009  c0.351-0.314,0.435-0.829,0.203-1.237l-0.896-1.581l5.541,0.356C56.988,32.946,57.422,32.614,57.523,32.126z M38.467,32.332v2.664  l-3.219,2.953L33.062,37.3C34.561,35.346,36.387,33.662,38.467,32.332z M38.467,67.863c-3.465-2.215-6.238-5.406-7.932-9.192  l2.334,1.455l3.049,3.771c0.189,0.234,0.476,0.371,0.777,0.371h1.771L38.467,67.863L38.467,67.863z M49.785,71.188  c-3.348,0-6.504-0.805-9.318-2.199V63.27c0-0.554-0.447-1-1-1h-2.293l-2.854-3.531c-0.07-0.086-0.154-0.161-0.249-0.221  l-4.609-2.873c-0.484-1.771-0.766-3.625-0.766-5.546c0-4.061,1.174-7.844,3.171-11.065l3.355,0.996  c0.094,0.027,0.189,0.041,0.284,0.041c0.248,0,0.49-0.092,0.676-0.263l3.961-3.634c0.207-0.189,0.324-0.457,0.324-0.737v-4.229  c2.814-1.395,5.971-2.199,9.318-2.199c2.141,0,4.203,0.325,6.152,0.921l-0.195,0.94l-6.52-0.42  c-0.385-0.018-0.717,0.156-0.912,0.467c-0.195,0.312-0.204,0.704-0.023,1.023l1.41,2.49l-2.433,2.18  c-0.205,0.185-0.325,0.444-0.332,0.72c-0.007,0.276,0.1,0.541,0.296,0.735l3.141,3.117c0.25,0.248,0.613,0.344,0.953,0.259  l4.367-1.121c0.262-0.067,0.484-0.237,0.619-0.471c0.135-0.234,0.168-0.513,0.096-0.771l-0.758-2.661l1.271,0.158l2.464,3.102  l-0.708,3.788c-0.055,0.292,0.022,0.594,0.214,0.822c0.189,0.229,0.473,0.361,0.771,0.361h10.479  c0.467,1.742,0.738,3.563,0.738,5.45C70.875,61.727,61.414,71.188,49.785,71.188z"/><path d="M62.087,50.848c-0.114-0.021-0.233-0.021-0.378,0.004h-2.704l-2.593-5.671c-0.189-0.424-0.609-0.685-1.123-0.592h-6.45  c0.044-1.83-0.03-1.908-0.308-2.193c-0.188-0.194-0.451-0.307-0.723-0.307h-5.07c-0.331,0-0.646,0.142-0.869,0.396l-4.561,5.251  c-0.131,0.145-0.25,0.399-0.281,0.593l-0.404,2.609c-0.025,0.188,0.018,0.469,0.098,0.642l1.338,2.86  c0.049,0.09,0.145,0.215,0.218,0.285l1.552,1.475c0.215,0.207,0.498,0.322,0.797,0.322h4.967l0.943,0.672l1.447,3.971l-0.557,2.412  c-0.046,0.21-0.014,0.523,0.074,0.721l1.744,3.855c0.137,0.302,0.395,0.529,0.73,0.634c0.089,0.024,0.225,0.044,0.318,0.044  c0.198,0,0.472-0.082,0.636-0.191l8.652-5.828c0.304-0.25,0.457-0.631,0.413-0.99l-0.339-3.771l3.072-5.56  c0.145-0.176,0.23-0.398,0.23-0.641c0-0.265-0.109-0.524-0.297-0.713C62.507,50.98,62.303,50.877,62.087,50.848z M57.758,57.35  c-0.096,0.174-0.139,0.373-0.121,0.571l0.321,3.576l-7.306,4.914l-1.211-2.677l0.557-2.412c0.044-0.188,0.031-0.385-0.035-0.566  l-1.656-4.541c-0.068-0.189-0.194-0.354-0.359-0.472l-1.457-1.037c-0.169-0.121-0.371-0.187-0.58-0.187h-4.945l-1.193-1.133  l-1.13-2.423l0.323-2.089l4.158-4.788h3.721c-0.006,0.438-0.018,0.981-0.034,1.467c-0.009,0.271,0.093,0.534,0.28,0.729  c0.189,0.194,0.448,0.305,0.719,0.305h7.047l2.598,5.68c0.163,0.354,0.52,0.584,0.91,0.584h1.881L57.758,57.35z"/><text x="0" y="115" fill="#000000" font-size="5px" font-weight="bold" font-family="'Helvetica Neue', Helvetica, Arial-Unicode, Arial, Sans-serif">Created by Gregsuj</text><text x="0" y="120" fill="#000000" font-size="5px" font-weight="bold" font-family="'Helvetica Neue', Helvetica, Arial-Unicode, Arial, Sans-serif">from the Noun Project</text></svg>