<svg width="324" height="79.1" xmlns="http://www.w3.org/2000/svg">
    <style>
        @media (prefers-color-scheme: dark) {
          g {
            fill: #fff !important;
            stroke: #fff !important;
        }
        }
    </style>
    <g id="svgGroup" stroke-linecap="round" fill-rule="evenodd" font-size="9pt" stroke="#000" stroke-width="0.25mm"
        fill="black" style="stroke:#000;stroke-width:0.25mm;fill:black">
        <path
            d="M 0 51.8 L 0 8.3 L 9.7 8.3 L 9.7 50.7 Q 9.7 56.881 11.325 61.048 A 13.917 13.917 0 0 0 14.3 65.8 A 15.424 15.424 0 0 0 23.839 70.361 A 21.216 21.216 0 0 0 26.3 70.5 A 20.677 20.677 0 0 0 30.361 70.116 A 17.131 17.131 0 0 0 33.05 69.35 Q 36.1 68.2 38.3 65.8 A 14.464 14.464 0 0 0 40.51 62.574 A 19.527 19.527 0 0 0 41.7 59.65 A 23.471 23.471 0 0 0 42.541 55.954 Q 42.9 53.544 42.9 50.7 L 42.9 8.3 L 52.6 8.3 L 52.6 51.8 A 38.327 38.327 0 0 1 51.932 59.068 A 33.059 33.059 0 0 1 51.05 62.6 A 23.714 23.714 0 0 1 47.769 69.341 A 21.953 21.953 0 0 1 46.25 71.25 A 21.954 21.954 0 0 1 39.846 76.158 A 26.353 26.353 0 0 1 38.05 77 Q 33.1 79.1 26.3 79.1 A 37.131 37.131 0 0 1 20.695 78.698 Q 17.63 78.23 15.032 77.216 A 22.621 22.621 0 0 1 14.5 77 A 23.825 23.825 0 0 1 9.32 74.054 A 20.264 20.264 0 0 1 6.3 71.25 A 23.109 23.109 0 0 1 1.963 63.829 A 26.977 26.977 0 0 1 1.55 62.6 Q 0 57.6 0 51.8 Z M 185 77.6 L 185 27.1 Q 188.129 26.318 193.266 25.44 A 225.751 225.751 0 0 1 193.5 25.4 A 60.143 60.143 0 0 1 198.82 24.754 Q 201.582 24.536 204.678 24.505 A 103.082 103.082 0 0 1 205.7 24.5 A 36.259 36.259 0 0 1 210.049 24.745 Q 213.436 25.155 216 26.25 A 17.536 17.536 0 0 1 220.041 28.622 A 14.88 14.88 0 0 1 222.55 31.15 A 17.963 17.963 0 0 1 225.323 36.324 A 22.227 22.227 0 0 1 226 38.7 A 39.412 39.412 0 0 1 226.809 43.935 A 50.295 50.295 0 0 1 227 48.4 L 227 77.6 L 217.7 77.6 L 217.7 50.4 A 59.914 59.914 0 0 0 217.609 46.997 Q 217.513 45.327 217.319 43.871 A 30.15 30.15 0 0 0 217.05 42.2 Q 216.4 38.8 214.9 36.7 Q 213.4 34.6 210.9 33.65 A 13.28 13.28 0 0 0 208.53 33.009 Q 207.348 32.797 205.981 32.73 A 26.414 26.414 0 0 0 204.7 32.7 A 49.112 49.112 0 0 0 201.998 32.777 A 54.26 54.26 0 0 0 201.6 32.8 A 78.143 78.143 0 0 0 199.29 32.978 A 67.682 67.682 0 0 0 198.55 33.05 A 45.376 45.376 0 0 0 197.216 33.207 Q 196.585 33.291 196.024 33.387 A 27.373 27.373 0 0 0 195.95 33.4 A 170.048 170.048 0 0 0 195.416 33.494 Q 194.675 33.625 194.3 33.7 L 194.3 77.6 L 185 77.6 Z M 169 25.6 L 169 76.1 Q 165.871 76.882 160.782 77.76 A 226.256 226.256 0 0 1 160.55 77.8 A 58.212 58.212 0 0 1 155.64 78.415 Q 152.281 78.7 148.4 78.7 Q 142.4 78.7 138.3 76.95 A 17.396 17.396 0 0 1 133.995 74.361 A 15.265 15.265 0 0 1 131.7 72 A 19.412 19.412 0 0 1 128.648 66.298 A 23.269 23.269 0 0 1 128.1 64.45 A 35.294 35.294 0 0 1 127.211 59.256 A 45.46 45.46 0 0 1 127 54.8 L 127 25.6 L 136.3 25.6 L 136.3 52.8 A 47.643 47.643 0 0 0 136.512 57.466 Q 137.097 63.389 139.3 66.4 Q 141.886 69.934 147.519 70.422 A 21.825 21.825 0 0 0 149.4 70.5 A 49.112 49.112 0 0 0 152.102 70.423 A 54.26 54.26 0 0 0 152.5 70.4 A 73.282 73.282 0 0 0 154.422 70.255 A 60.256 60.256 0 0 0 155.5 70.15 Q 156.9 70 158.05 69.85 Q 158.944 69.733 159.445 69.587 A 2.844 2.844 0 0 0 159.7 69.5 L 159.7 25.6 L 169 25.6 Z M 324 25.6 L 324 76.1 Q 320.871 76.882 315.782 77.76 A 226.256 226.256 0 0 1 315.55 77.8 A 58.212 58.212 0 0 1 310.64 78.415 Q 307.281 78.7 303.4 78.7 Q 297.4 78.7 293.3 76.95 A 17.396 17.396 0 0 1 288.995 74.361 A 15.265 15.265 0 0 1 286.7 72 A 19.412 19.412 0 0 1 283.648 66.298 A 23.269 23.269 0 0 1 283.1 64.45 A 35.294 35.294 0 0 1 282.211 59.256 A 45.46 45.46 0 0 1 282 54.8 L 282 25.6 L 291.3 25.6 L 291.3 52.8 A 47.643 47.643 0 0 0 291.512 57.466 Q 292.097 63.389 294.3 66.4 Q 296.886 69.934 302.519 70.422 A 21.825 21.825 0 0 0 304.4 70.5 A 49.112 49.112 0 0 0 307.102 70.423 A 54.26 54.26 0 0 0 307.5 70.4 A 73.282 73.282 0 0 0 309.422 70.255 A 60.256 60.256 0 0 0 310.5 70.15 Q 311.9 70 313.05 69.85 Q 313.944 69.733 314.445 69.587 A 2.844 2.844 0 0 0 314.7 69.5 L 314.7 25.6 L 324 25.6 Z M 78 0 L 78 27.9 A 13.194 13.194 0 0 1 79.216 27.212 Q 80.547 26.54 82.496 25.832 A 51.881 51.881 0 0 1 83.15 25.6 A 20.87 20.87 0 0 1 87.112 24.664 A 28.712 28.712 0 0 1 91.1 24.4 Q 96.7 24.4 101.05 26.4 Q 105.4 28.4 108.4 32 A 23.624 23.624 0 0 1 112.084 38.187 A 28.611 28.611 0 0 1 112.95 40.6 A 34.488 34.488 0 0 1 114.317 47.593 A 42.722 42.722 0 0 1 114.5 51.6 Q 114.5 57.9 112.65 62.95 A 25.305 25.305 0 0 1 109.732 68.657 A 22.076 22.076 0 0 1 107.4 71.5 A 23.066 23.066 0 0 1 99.499 76.78 A 26.442 26.442 0 0 1 99.2 76.9 A 26.854 26.854 0 0 1 92.558 78.555 A 34.154 34.154 0 0 1 88.4 78.8 Q 82.586 78.8 77.971 78.08 A 46.702 46.702 0 0 1 76.9 77.9 Q 71.9 77 68.7 76.1 L 68.7 1.6 L 78 0 Z M 251.1 9.5 L 251.1 25.6 L 270.8 25.6 L 270.8 33.4 L 251.1 33.4 L 251.1 57.4 Q 251.1 60.207 251.411 62.315 A 18.5 18.5 0 0 0 251.7 63.85 Q 252.3 66.4 253.5 67.85 Q 254.7 69.3 256.5 69.9 Q 258.188 70.463 260.402 70.498 A 18.756 18.756 0 0 0 260.7 70.5 A 30.313 30.313 0 0 0 263.336 70.393 Q 264.546 70.287 265.575 70.076 A 12.648 12.648 0 0 0 267.45 69.55 Q 270 68.6 271 68.2 L 272.8 75.9 A 12.272 12.272 0 0 1 271.969 76.272 Q 270.999 76.669 269.495 77.154 A 79.702 79.702 0 0 1 267.9 77.65 A 24.05 24.05 0 0 1 263.915 78.467 A 33.005 33.005 0 0 1 259.9 78.7 A 34.376 34.376 0 0 1 256.33 78.526 Q 253.36 78.215 251.15 77.35 A 13.452 13.452 0 0 1 247.447 75.203 A 12.109 12.109 0 0 1 245.6 73.3 A 14.761 14.761 0 0 1 243.463 69.437 A 19.349 19.349 0 0 1 242.65 66.65 A 35.786 35.786 0 0 1 242.04 62.672 Q 241.8 60.263 241.8 57.5 L 241.8 11.1 L 251.1 9.5 Z M 78 36.6 L 78 69.5 A 16.214 16.214 0 0 0 78.984 69.744 Q 80.194 70.009 81.95 70.25 Q 84.5 70.6 88.3 70.6 A 18.414 18.414 0 0 0 93.702 69.845 A 14.493 14.493 0 0 0 100.3 65.65 A 16.166 16.166 0 0 0 103.778 59.331 Q 104.513 56.891 104.719 53.965 A 33.594 33.594 0 0 0 104.8 51.6 Q 104.8 47.6 104 44.1 A 18.708 18.708 0 0 0 102.826 40.556 A 15.152 15.152 0 0 0 101.4 38.05 Q 99.6 35.5 96.75 34.05 A 12.79 12.79 0 0 0 93.397 32.919 Q 91.775 32.6 89.9 32.6 A 19.403 19.403 0 0 0 85.171 33.16 A 16.997 16.997 0 0 0 82.9 33.9 A 30.065 30.065 0 0 0 81.046 34.722 Q 79.169 35.638 78 36.6 Z"
            vector-effect="non-scaling-stroke" />
    </g>
</svg>